<mxfile host="app.diagrams.net" modified="2022-08-10T07:24:49.110Z" agent="5.0 (Macintosh)" etag="BhbJY_CRbXUalar8d8mi" version="20.2.3" type="github">
  <diagram id="onmVZMC7TlNop5oKB3UY" name="Page-1">
    <mxGraphModel dx="1796" dy="1630" grid="1" gridSize="10" guides="1" tooltips="1" connect="1" arrows="1" fold="1" page="1" pageScale="1" pageWidth="850" pageHeight="1100" math="0" shadow="0">
      <root>
        <mxCell id="0" />
        <mxCell id="1" parent="0" />
        <mxCell id="aEOiDf8z2A1y91HWuHEK-3" value="" style="rounded=1;whiteSpace=wrap;html=1;dashed=1;fillColor=#f5f5f5;fontColor=#333333;strokeColor=#666666;" parent="1" vertex="1">
          <mxGeometry x="360" y="-177" width="212" height="537" as="geometry" />
        </mxCell>
        <mxCell id="aEOiDf8z2A1y91HWuHEK-2" value="" style="rounded=1;whiteSpace=wrap;html=1;dashed=1;fillColor=#f5f5f5;fontColor=#333333;strokeColor=#666666;" parent="1" vertex="1">
          <mxGeometry x="88" y="-168.5" width="212" height="528.5" as="geometry" />
        </mxCell>
        <mxCell id="gxSmxHNSXOMdhkajosie-10" value="" style="rounded=1;whiteSpace=wrap;html=1;dashed=1;" parent="1" vertex="1">
          <mxGeometry x="150" y="-127.5" width="360" height="87.5" as="geometry" />
        </mxCell>
        <mxCell id="0BLKtr6tW4kkjmVhm_gT-1" value="Amazon Aurora Cluster &quot;Master&quot; Node" style="shape=cylinder3;whiteSpace=wrap;html=1;boundedLbl=1;backgroundOutline=1;size=15;fillColor=#d5e8d4;strokeColor=#82b366;" parent="1" vertex="1">
          <mxGeometry x="155" y="238" width="92" height="102" as="geometry" />
        </mxCell>
        <mxCell id="0BLKtr6tW4kkjmVhm_gT-7" value="" style="endArrow=classic;html=1;rounded=0;exitX=0.142;exitY=1;exitDx=0;exitDy=0;entryX=0.5;entryY=0;entryDx=0;entryDy=0;entryPerimeter=0;edgeStyle=orthogonalEdgeStyle;exitPerimeter=0;" parent="1" source="gxSmxHNSXOMdhkajosie-10" target="0BLKtr6tW4kkjmVhm_gT-1" edge="1">
          <mxGeometry width="50" height="50" relative="1" as="geometry">
            <mxPoint x="290" y="148" as="sourcePoint" />
            <mxPoint x="430" y="148" as="targetPoint" />
          </mxGeometry>
        </mxCell>
        <mxCell id="0BLKtr6tW4kkjmVhm_gT-8" value="Write" style="text;html=1;strokeColor=none;fillColor=none;align=center;verticalAlign=middle;whiteSpace=wrap;rounded=0;" parent="1" vertex="1">
          <mxGeometry x="201.5" y="-20" width="60" height="30" as="geometry" />
        </mxCell>
        <mxCell id="0BLKtr6tW4kkjmVhm_gT-11" value="Read" style="text;html=1;strokeColor=none;fillColor=none;align=center;verticalAlign=middle;whiteSpace=wrap;rounded=0;" parent="1" vertex="1">
          <mxGeometry x="369" y="-20" width="60" height="30" as="geometry" />
        </mxCell>
        <mxCell id="0BLKtr6tW4kkjmVhm_gT-12" value="" style="endArrow=classic;html=1;rounded=0;entryX=0.633;entryY=-0.025;entryDx=0;entryDy=0;entryPerimeter=0;edgeStyle=orthogonalEdgeStyle;" parent="1" target="0BLKtr6tW4kkjmVhm_gT-3" edge="1">
          <mxGeometry width="50" height="50" relative="1" as="geometry">
            <mxPoint x="420" y="-40" as="sourcePoint" />
            <mxPoint x="430" y="138" as="targetPoint" />
          </mxGeometry>
        </mxCell>
        <mxCell id="0BLKtr6tW4kkjmVhm_gT-16" value="Data Sync" style="text;html=1;strokeColor=none;fillColor=none;align=center;verticalAlign=middle;whiteSpace=wrap;rounded=0;" parent="1" vertex="1">
          <mxGeometry x="300" y="310" width="60" height="30" as="geometry" />
        </mxCell>
        <mxCell id="gxSmxHNSXOMdhkajosie-2" value="Amazon Application &lt;br&gt;Load Balancer" style="outlineConnect=0;dashed=0;verticalLabelPosition=bottom;verticalAlign=top;align=center;html=1;shape=mxgraph.aws3.elastic_load_balancing;fillColor=#F58534;gradientColor=none;" parent="1" vertex="1">
          <mxGeometry x="290" y="-320" width="80" height="80" as="geometry" />
        </mxCell>
        <mxCell id="gxSmxHNSXOMdhkajosie-3" value="Client" style="ellipse;shape=cloud;whiteSpace=wrap;html=1;fillColor=#dae8fc;strokeColor=#6c8ebf;" parent="1" vertex="1">
          <mxGeometry x="261.5" y="-620" width="120" height="80" as="geometry" />
        </mxCell>
        <mxCell id="gxSmxHNSXOMdhkajosie-4" value="" style="endArrow=classic;html=1;rounded=0;exitX=0.5;exitY=1;exitDx=0;exitDy=0;exitPerimeter=0;" parent="1" source="Na6hdPi10sbFOHIolOGf-2" target="gxSmxHNSXOMdhkajosie-2" edge="1">
          <mxGeometry width="50" height="50" relative="1" as="geometry">
            <mxPoint x="380" y="-220" as="sourcePoint" />
            <mxPoint x="430" y="-270" as="targetPoint" />
          </mxGeometry>
        </mxCell>
        <mxCell id="gxSmxHNSXOMdhkajosie-7" value="" style="endArrow=classic;html=1;rounded=0;exitX=0.5;exitY=1;exitDx=0;exitDy=0;exitPerimeter=0;" parent="1" source="gxSmxHNSXOMdhkajosie-2" target="gxSmxHNSXOMdhkajosie-10" edge="1">
          <mxGeometry width="50" height="50" relative="1" as="geometry">
            <mxPoint x="380" y="-140" as="sourcePoint" />
            <mxPoint x="328" y="-140" as="targetPoint" />
          </mxGeometry>
        </mxCell>
        <mxCell id="gxSmxHNSXOMdhkajosie-8" value="ElasticCache &lt;br&gt;( Managed Redis )" style="outlineConnect=0;dashed=0;verticalLabelPosition=bottom;verticalAlign=top;align=center;html=1;shape=mxgraph.aws3.elasticache;fillColor=#2E73B8;gradientColor=none;" parent="1" vertex="1">
          <mxGeometry x="496.25" y="-2" width="47.5" height="60" as="geometry" />
        </mxCell>
        <mxCell id="gxSmxHNSXOMdhkajosie-11" value="AutoScaling" style="text;html=1;strokeColor=none;fillColor=none;align=center;verticalAlign=middle;whiteSpace=wrap;rounded=0;dashed=1;" parent="1" vertex="1">
          <mxGeometry x="150" y="-155.5" width="60" height="30" as="geometry" />
        </mxCell>
        <mxCell id="gxSmxHNSXOMdhkajosie-13" value="S3 - Object Store" style="outlineConnect=0;dashed=0;verticalLabelPosition=bottom;verticalAlign=top;align=center;html=1;shape=mxgraph.aws3.s3;fillColor=#E05243;gradientColor=none;" parent="1" vertex="1">
          <mxGeometry x="750" y="-20" width="60" height="63" as="geometry" />
        </mxCell>
        <mxCell id="gxSmxHNSXOMdhkajosie-14" value="Amazon CloudFront" style="outlineConnect=0;dashed=0;verticalLabelPosition=bottom;verticalAlign=top;align=center;html=1;shape=mxgraph.aws3.cloudfront;fillColor=#F58536;gradientColor=none;" parent="1" vertex="1">
          <mxGeometry x="741.75" y="-270" width="76.5" height="93" as="geometry" />
        </mxCell>
        <mxCell id="gxSmxHNSXOMdhkajosie-15" value="" style="endArrow=classic;html=1;rounded=0;exitX=1;exitY=0.5;exitDx=0;exitDy=0;exitPerimeter=0;entryX=0.5;entryY=0;entryDx=0;entryDy=0;entryPerimeter=0;edgeStyle=orthogonalEdgeStyle;" parent="1" source="Na6hdPi10sbFOHIolOGf-2" target="gxSmxHNSXOMdhkajosie-14" edge="1">
          <mxGeometry width="50" height="50" relative="1" as="geometry">
            <mxPoint x="380" y="-190" as="sourcePoint" />
            <mxPoint x="430" y="-240" as="targetPoint" />
          </mxGeometry>
        </mxCell>
        <mxCell id="gxSmxHNSXOMdhkajosie-16" value="" style="endArrow=classic;html=1;rounded=0;entryX=0.5;entryY=0;entryDx=0;entryDy=0;entryPerimeter=0;" parent="1" source="gxSmxHNSXOMdhkajosie-14" target="gxSmxHNSXOMdhkajosie-13" edge="1">
          <mxGeometry width="50" height="50" relative="1" as="geometry">
            <mxPoint x="380" y="130" as="sourcePoint" />
            <mxPoint x="678" y="130" as="targetPoint" />
          </mxGeometry>
        </mxCell>
        <mxCell id="gxSmxHNSXOMdhkajosie-17" value="" style="rounded=1;whiteSpace=wrap;html=1;dashed=1;" parent="1" vertex="1">
          <mxGeometry x="-111" y="300" width="180" height="90" as="geometry" />
        </mxCell>
        <mxCell id="gxSmxHNSXOMdhkajosie-18" value="Customer&#39;s A-M SQL" style="shape=cylinder3;whiteSpace=wrap;html=1;boundedLbl=1;backgroundOutline=1;size=15;fillColor=#d5e8d4;strokeColor=#82b366;" parent="1" vertex="1">
          <mxGeometry x="-100" y="310" width="70" height="70" as="geometry" />
        </mxCell>
        <mxCell id="gxSmxHNSXOMdhkajosie-19" value="Customer&#39;s N-Z SQL" style="shape=cylinder3;whiteSpace=wrap;html=1;boundedLbl=1;backgroundOutline=1;size=15;fillColor=#d5e8d4;strokeColor=#82b366;" parent="1" vertex="1">
          <mxGeometry x="-10" y="310" width="70" height="70" as="geometry" />
        </mxCell>
        <mxCell id="gxSmxHNSXOMdhkajosie-20" value="Sharding ( Multiple Masters in Different Regions )" style="text;html=1;strokeColor=none;fillColor=none;align=center;verticalAlign=middle;whiteSpace=wrap;rounded=0;dashed=1;" parent="1" vertex="1">
          <mxGeometry x="-132.5" y="270" width="192.5" height="30" as="geometry" />
        </mxCell>
        <mxCell id="gxSmxHNSXOMdhkajosie-21" value="" style="rounded=1;whiteSpace=wrap;html=1;dashed=1;" parent="1" vertex="1">
          <mxGeometry x="-111" y="430" width="180" height="90" as="geometry" />
        </mxCell>
        <mxCell id="gxSmxHNSXOMdhkajosie-22" value="Customer SQL" style="shape=cylinder3;whiteSpace=wrap;html=1;boundedLbl=1;backgroundOutline=1;size=15;fillColor=#d5e8d4;strokeColor=#82b366;" parent="1" vertex="1">
          <mxGeometry x="-100" y="440" width="70" height="70" as="geometry" />
        </mxCell>
        <mxCell id="gxSmxHNSXOMdhkajosie-23" value="Products SQL" style="shape=cylinder3;whiteSpace=wrap;html=1;boundedLbl=1;backgroundOutline=1;size=15;fillColor=#d5e8d4;strokeColor=#82b366;" parent="1" vertex="1">
          <mxGeometry x="-20" y="440" width="70" height="70" as="geometry" />
        </mxCell>
        <mxCell id="gxSmxHNSXOMdhkajosie-24" value="Federation" style="text;html=1;strokeColor=none;fillColor=none;align=center;verticalAlign=middle;whiteSpace=wrap;rounded=0;dashed=1;" parent="1" vertex="1">
          <mxGeometry x="-90" y="400" width="60" height="30" as="geometry" />
        </mxCell>
        <mxCell id="gxSmxHNSXOMdhkajosie-25" value="" style="endArrow=none;dashed=1;html=1;dashPattern=1 3;strokeWidth=2;rounded=0;entryX=0;entryY=0.5;entryDx=0;entryDy=0;entryPerimeter=0;" parent="1" source="gxSmxHNSXOMdhkajosie-17" target="0BLKtr6tW4kkjmVhm_gT-1" edge="1">
          <mxGeometry width="50" height="50" relative="1" as="geometry">
            <mxPoint x="240" y="410" as="sourcePoint" />
            <mxPoint x="290" y="360" as="targetPoint" />
          </mxGeometry>
        </mxCell>
        <mxCell id="gxSmxHNSXOMdhkajosie-26" value="" style="endArrow=none;dashed=1;html=1;dashPattern=1 3;strokeWidth=2;rounded=0;exitX=1.006;exitY=0.333;exitDx=0;exitDy=0;exitPerimeter=0;entryX=0.5;entryY=1;entryDx=0;entryDy=0;entryPerimeter=0;" parent="1" source="gxSmxHNSXOMdhkajosie-21" target="0BLKtr6tW4kkjmVhm_gT-1" edge="1">
          <mxGeometry width="50" height="50" relative="1" as="geometry">
            <mxPoint x="240" y="410" as="sourcePoint" />
            <mxPoint x="160" y="290" as="targetPoint" />
          </mxGeometry>
        </mxCell>
        <mxCell id="gxSmxHNSXOMdhkajosie-28" value="" style="endArrow=classic;html=1;rounded=0;exitX=1;exitY=0.5;exitDx=0;exitDy=0;entryX=0;entryY=0.5;entryDx=0;entryDy=0;edgeStyle=orthogonalEdgeStyle;entryPerimeter=0;" parent="1" source="gxSmxHNSXOMdhkajosie-10" target="gxSmxHNSXOMdhkajosie-13" edge="1">
          <mxGeometry width="50" height="50" relative="1" as="geometry">
            <mxPoint x="240" y="60" as="sourcePoint" />
            <mxPoint x="610" y="-94" as="targetPoint" />
          </mxGeometry>
        </mxCell>
        <mxCell id="gxSmxHNSXOMdhkajosie-38" value="Amazon RedShift &lt;br&gt;( Data Warehousing )" style="outlineConnect=0;dashed=0;verticalLabelPosition=bottom;verticalAlign=top;align=center;html=1;shape=mxgraph.aws3.redshift;fillColor=#2E73B8;gradientColor=none;" parent="1" vertex="1">
          <mxGeometry x="-250" y="380" width="67.5" height="75" as="geometry" />
        </mxCell>
        <mxCell id="gxSmxHNSXOMdhkajosie-39" value="" style="endArrow=classic;html=1;rounded=0;exitX=1;exitY=0.53;exitDx=0;exitDy=0;exitPerimeter=0;entryX=0;entryY=0.75;entryDx=0;entryDy=0;" parent="1" source="gxSmxHNSXOMdhkajosie-38" target="gxSmxHNSXOMdhkajosie-17" edge="1">
          <mxGeometry width="50" height="50" relative="1" as="geometry">
            <mxPoint x="30" y="410" as="sourcePoint" />
            <mxPoint x="80" y="360" as="targetPoint" />
          </mxGeometry>
        </mxCell>
        <mxCell id="gxSmxHNSXOMdhkajosie-40" value="Continuous Pull" style="text;html=1;strokeColor=none;fillColor=none;align=center;verticalAlign=middle;whiteSpace=wrap;rounded=0;dashed=1;" parent="1" vertex="1">
          <mxGeometry x="-182.5" y="350" width="60" height="30" as="geometry" />
        </mxCell>
        <mxCell id="Na6hdPi10sbFOHIolOGf-2" value="Amazon Route 53&lt;br&gt;( DNS Service )" style="sketch=0;points=[[0,0,0],[0.25,0,0],[0.5,0,0],[0.75,0,0],[1,0,0],[0,1,0],[0.25,1,0],[0.5,1,0],[0.75,1,0],[1,1,0],[0,0.25,0],[0,0.5,0],[0,0.75,0],[1,0.25,0],[1,0.5,0],[1,0.75,0]];outlineConnect=0;fontColor=#232F3E;gradientColor=#945DF2;gradientDirection=north;fillColor=#5A30B5;strokeColor=#ffffff;dashed=0;verticalLabelPosition=bottom;verticalAlign=top;align=center;html=1;fontSize=12;fontStyle=0;aspect=fixed;shape=mxgraph.aws4.resourceIcon;resIcon=mxgraph.aws4.route_53;" parent="1" vertex="1">
          <mxGeometry x="289" y="-480" width="78" height="78" as="geometry" />
        </mxCell>
        <mxCell id="Na6hdPi10sbFOHIolOGf-3" value="" style="endArrow=classic;html=1;rounded=0;exitX=0.55;exitY=0.95;exitDx=0;exitDy=0;exitPerimeter=0;entryX=0.5;entryY=0;entryDx=0;entryDy=0;entryPerimeter=0;" parent="1" source="gxSmxHNSXOMdhkajosie-3" target="Na6hdPi10sbFOHIolOGf-2" edge="1">
          <mxGeometry width="50" height="50" relative="1" as="geometry">
            <mxPoint x="530" y="-370" as="sourcePoint" />
            <mxPoint x="580" y="-420" as="targetPoint" />
          </mxGeometry>
        </mxCell>
        <mxCell id="Na6hdPi10sbFOHIolOGf-5" value="EC2" style="outlineConnect=0;dashed=0;verticalLabelPosition=bottom;verticalAlign=top;align=center;html=1;shape=mxgraph.aws3.ec2;fillColor=#F58534;gradientColor=none;" parent="1" vertex="1">
          <mxGeometry x="180" y="-116" width="40" height="48.25" as="geometry" />
        </mxCell>
        <mxCell id="Na6hdPi10sbFOHIolOGf-6" value="Static Content" style="text;html=1;strokeColor=none;fillColor=none;align=center;verticalAlign=middle;whiteSpace=wrap;rounded=0;" parent="1" vertex="1">
          <mxGeometry x="480" y="-470" width="80" height="30" as="geometry" />
        </mxCell>
        <mxCell id="Na6hdPi10sbFOHIolOGf-7" value="" style="endArrow=classic;html=1;rounded=0;exitX=0.9;exitY=0.989;exitDx=0;exitDy=0;entryX=0.5;entryY=0;entryDx=0;entryDy=0;entryPerimeter=0;edgeStyle=orthogonalEdgeStyle;exitPerimeter=0;" parent="1" source="gxSmxHNSXOMdhkajosie-10" target="gxSmxHNSXOMdhkajosie-8" edge="1">
          <mxGeometry width="50" height="50" relative="1" as="geometry">
            <mxPoint x="350" y="110" as="sourcePoint" />
            <mxPoint x="400" y="60" as="targetPoint" />
          </mxGeometry>
        </mxCell>
        <mxCell id="aEOiDf8z2A1y91HWuHEK-1" value="ElasticCache &lt;br&gt;( Managed Redis )" style="outlineConnect=0;dashed=0;verticalLabelPosition=bottom;verticalAlign=top;align=center;html=1;shape=mxgraph.aws3.elasticache;fillColor=#2E73B8;gradientColor=none;" parent="1" vertex="1">
          <mxGeometry x="114" y="-4" width="50" height="59" as="geometry" />
        </mxCell>
        <mxCell id="aEOiDf8z2A1y91HWuHEK-4" value="" style="endArrow=classic;html=1;rounded=0;entryX=0.5;entryY=0;entryDx=0;entryDy=0;entryPerimeter=0;edgeStyle=orthogonalEdgeStyle;exitX=0;exitY=0.5;exitDx=0;exitDy=0;" parent="1" source="gxSmxHNSXOMdhkajosie-10" target="aEOiDf8z2A1y91HWuHEK-1" edge="1">
          <mxGeometry width="50" height="50" relative="1" as="geometry">
            <mxPoint x="200" y="-40" as="sourcePoint" />
            <mxPoint x="410" y="-120" as="targetPoint" />
          </mxGeometry>
        </mxCell>
        <mxCell id="aEOiDf8z2A1y91HWuHEK-5" value="EC2" style="outlineConnect=0;dashed=0;verticalLabelPosition=bottom;verticalAlign=top;align=center;html=1;shape=mxgraph.aws3.ec2;fillColor=#F58534;gradientColor=none;" parent="1" vertex="1">
          <mxGeometry x="451" y="-116" width="40" height="48.25" as="geometry" />
        </mxCell>
        <mxCell id="aEOiDf8z2A1y91HWuHEK-6" value="Availability Zone1 ( Region1 )" style="text;html=1;strokeColor=none;fillColor=none;align=center;verticalAlign=middle;whiteSpace=wrap;rounded=0;" parent="1" vertex="1">
          <mxGeometry x="80" y="-198.5" width="170" height="30" as="geometry" />
        </mxCell>
        <mxCell id="aEOiDf8z2A1y91HWuHEK-7" value="Availability Zone2 ( Region1 )" style="text;html=1;strokeColor=none;fillColor=none;align=center;verticalAlign=middle;whiteSpace=wrap;rounded=0;" parent="1" vertex="1">
          <mxGeometry x="437" y="-205" width="165" height="30" as="geometry" />
        </mxCell>
        <mxCell id="0BLKtr6tW4kkjmVhm_gT-3" value="Amazon Aurora Cluster &quot;Slave&quot; Node" style="shape=cylinder3;whiteSpace=wrap;html=1;boundedLbl=1;backgroundOutline=1;size=15;fillColor=#f5f5f5;strokeColor=#666666;fontColor=#333333;" parent="1" vertex="1">
          <mxGeometry x="413.5" y="240" width="105" height="101" as="geometry" />
        </mxCell>
        <mxCell id="aEOiDf8z2A1y91HWuHEK-18" value="" style="endArrow=classic;html=1;rounded=0;exitX=1;exitY=0;exitDx=0;exitDy=69;exitPerimeter=0;entryX=0;entryY=0;entryDx=0;entryDy=68.25;entryPerimeter=0;" parent="1" source="0BLKtr6tW4kkjmVhm_gT-1" target="0BLKtr6tW4kkjmVhm_gT-3" edge="1">
          <mxGeometry width="50" height="50" relative="1" as="geometry">
            <mxPoint x="400" y="250" as="sourcePoint" />
            <mxPoint x="450" y="200" as="targetPoint" />
          </mxGeometry>
        </mxCell>
        <mxCell id="VerBMDBRh4YoSRX80HrU-1" value="Image Upload" style="text;html=1;strokeColor=none;fillColor=none;align=center;verticalAlign=middle;whiteSpace=wrap;rounded=0;" vertex="1" parent="1">
          <mxGeometry x="640" y="-20" width="60" height="30" as="geometry" />
        </mxCell>
        <mxCell id="VerBMDBRh4YoSRX80HrU-2" value="CloudWatch" style="sketch=0;points=[[0,0,0],[0.25,0,0],[0.5,0,0],[0.75,0,0],[1,0,0],[0,1,0],[0.25,1,0],[0.5,1,0],[0.75,1,0],[1,1,0],[0,0.25,0],[0,0.5,0],[0,0.75,0],[1,0.25,0],[1,0.5,0],[1,0.75,0]];points=[[0,0,0],[0.25,0,0],[0.5,0,0],[0.75,0,0],[1,0,0],[0,1,0],[0.25,1,0],[0.5,1,0],[0.75,1,0],[1,1,0],[0,0.25,0],[0,0.5,0],[0,0.75,0],[1,0.25,0],[1,0.5,0],[1,0.75,0]];outlineConnect=0;fontColor=#232F3E;gradientColor=#F34482;gradientDirection=north;fillColor=#BC1356;strokeColor=#ffffff;dashed=0;verticalLabelPosition=bottom;verticalAlign=top;align=center;html=1;fontSize=12;fontStyle=0;aspect=fixed;shape=mxgraph.aws4.resourceIcon;resIcon=mxgraph.aws4.cloudwatch_2;" vertex="1" parent="1">
          <mxGeometry x="631" y="238" width="78" height="78" as="geometry" />
        </mxCell>
      </root>
    </mxGraphModel>
  </diagram>
</mxfile>
